# xmcd
#
# Track frame offsets: 
#        183
#        11403
#        24505
#        35873
#        50295
#        63893
#        79525
#        93520
#        107325
#        119890
#        132728
#        146960
#        159113
#        169045
#        180228
#        192028
#        204538
#        215778
#
# Disc length: 3041 seconds
#
# Revision: 2
# Processed by: cddbd v1.5.2PL0 Copyright (c) Steve Scherf et al.
# Submitted via: ExactAudioCopy v0.95b4
#
DISCID=f80bdf12
DTITLE=Bo Diddley - The Best Of Bo Diddley
DYEAR=1900
DGENRE=
TTITLE0=Bo Diddley
TTITLE1=500% More Man
TTITLE2=Bring It To Jerome
TTITLE3=Say Man
TTITLE4=Somebody's Cryin'
TTITLE5=Cops and Robbers
TTITLE6=Before You Accuse Me
TTITLE7=Bo Diddley Is Loose
TTITLE8=I'm A Man
TTITLE9=Dearest Darling
TTITLE10=Hong Kong
TTITLE11=Can I Go Home?
TTITLE12=Hey Bo Diddley
TTITLE13=Whoa Mule
TTITLE14=Bo's Blues
TTITLE15=Pretty Thing
TTITLE16=Who Do You Love?
TTITLE17=Road Runner
EXTD=
EXTT0=
EXTT1=
EXTT2=
EXTT3=
EXTT4=
EXTT5=
EXTT6=
EXTT7=
EXTT8=
EXTT9=
EXTT10=
EXTT11=
EXTT12=
EXTT13=
EXTT14=
EXTT15=
EXTT16=
EXTT17=
PLAYORDER=
